HIERARCHY
ROOT Hips
{
	OFFSET 0 0 0
	CHANNELS 6 Xposition Yposition Zposition Yrotation Xrotation Zrotation
	JOINT Spine
	{
		OFFSET -0 8.38078 -2.67137
		CHANNELS 3 Yrotation Xrotation Zrotation
		JOINT Spine1
		{
			OFFSET -0 10.2701 0
			CHANNELS 3 Yrotation Xrotation Zrotation
			JOINT Spine2
			{
				OFFSET -0 10.2701 0
				CHANNELS 3 Yrotation Xrotation Zrotation
				JOINT Spine3
				{
					OFFSET -0 10.2701 0
					CHANNELS 3 Yrotation Xrotation Zrotation
					JOINT Neck
					{
						OFFSET -0 16.9472 3.67137
						CHANNELS 3 Yrotation Xrotation Zrotation
						JOINT Head
						{
							OFFSET -0 10.476 0
							CHANNELS 3 Yrotation Xrotation Zrotation
							End Site
							{
								OFFSET -0 15 0
							}
						}
					}
					JOINT LeftShoulder
					{
						OFFSET 1.74599 4.87741 3.49199
						CHANNELS 3 Yrotation Xrotation Zrotation
						JOINT LeftArm
						{
							OFFSET 19.9293 0 0
							CHANNELS 3 Yrotation Xrotation Zrotation
							JOINT LeftForeArm
							{
								OFFSET 25.2203 0 0
								CHANNELS 3 Yrotation Xrotation Zrotation
								JOINT LeftHand
								{
									OFFSET 22.6882 0 0
									CHANNELS 3 Yrotation Xrotation Zrotation
									End Site
									{
										OFFSET 15 0 0
									}
								}
							}
						}
					}
					JOINT RightShoulder
					{
						OFFSET -1.74599 4.87741 3.49199
						CHANNELS 3 Yrotation Xrotation Zrotation
						JOINT RightArm
						{
							OFFSET -19.9293 0 0
							CHANNELS 3 Yrotation Xrotation Zrotation
							JOINT RightForeArm
							{
								OFFSET -25.2203 0 0
								CHANNELS 3 Yrotation Xrotation Zrotation
								JOINT RightHand
								{
									OFFSET -22.6882 0 0
									CHANNELS 3 Yrotation Xrotation Zrotation
									End Site
									{
										OFFSET -15 0 0
									}
								}
							}
						}
					}
				}
			}
		}
	}
	JOINT LeftUpLeg
	{
		OFFSET 10.476 -3.49199 2
		CHANNELS 3 Yrotation Xrotation Zrotation
		JOINT LeftLeg
		{
			OFFSET -0 -42.329 2.44439
			CHANNELS 3 Yrotation Xrotation Zrotation
			JOINT LeftFoot
			{
				OFFSET -0 -39.8175 -2.44439
				CHANNELS 3 Yrotation Xrotation Zrotation
				JOINT LeftToeBase
				{
					OFFSET -0 -6.74129 15.714
					CHANNELS 3 Yrotation Xrotation Zrotation
					End Site
					{
						OFFSET -0 0 5
					}
				}
			}
		}
	}
	JOINT RightUpLeg
	{
		OFFSET -10.476 -3.49199 2
		CHANNELS 3 Yrotation Xrotation Zrotation
		JOINT RightLeg
		{
			OFFSET -0 -42.329 2.44439
			CHANNELS 3 Yrotation Xrotation Zrotation
			JOINT RightFoot
			{
				OFFSET -0 -39.8175 -2.44439
				CHANNELS 3 Yrotation Xrotation Zrotation
				JOINT RightToeBase
				{
					OFFSET -0 -6.74129 15.714
					CHANNELS 3 Yrotation Xrotation Zrotation
					End Site
					{
						OFFSET -0 0 5
					}
				}
			}
		}
	}
}
MOTION
Frames: 12
Frame Time: 0.00833333
179.210242 75.367090 124.865259 171.668130 34.091697 -0.641397 -1.556692 12.528399 -1.086999 -1.947876 8.993047 -1.665361 1.290209 4.898477 -1.023173 1.104251 2.351231 -1.199522 -2.161504 -28.141722 -0.918877 -1.494797 -20.271462 0.510860 7.672687 2.844028 0.346305 17.731467 38.291738 -63.941594 -8.784586 30.464672 2.513640 18.289937 -36.435283 -1.121073 -13.157868 11.780125 1.887046 -11.028589 32.260233 72.646560 3.042143 13.140350 -8.472332 -24.905636 -45.959236 14.508481 -44.570376 -80.566309 46.335978 0.000000 69.510303 0.000000 15.838354 -12.540928 -9.435832 0.000000 -9.664016 0.000000 42.684945 -83.100428 -43.132466 0.000000 66.480961 0.000000 -7.890707 -11.358259 1.025067 0.000000 -2.864514 0.000000
179.175574 74.599133 124.764404 171.844217 33.480816 -0.496223 -1.629646 12.321002 -1.215701 -2.024290 9.107548 -1.695856 1.324646 5.132847 -0.802605 1.263868 2.602683 -1.146359 -2.387998 -28.148990 -0.984426 -1.567267 -21.116541 0.350435 5.728229 1.738328 -1.060254 13.758684 36.115464 -67.051368 -8.084503 28.852794 2.792853 16.666262 -36.102666 0.156580 -10.530657 10.684670 3.682249 -7.661710 30.424541 75.490478 3.158301 11.865540 -8.225925 -24.921542 -47.305673 14.981498 -46.063947 -80.740449 47.562516 0.000000 71.196203 0.000000 15.958639 -13.273253 -9.620803 0.000000 -9.540518 0.000000 46.173565 -83.160946 -46.668964 0.000000 68.299041 0.000000 -8.052324 -12.163908 1.279146 0.000000 -2.603881 0.000000
179.155225 73.913153 124.594336 172.196428 33.054818 -0.273614 -1.681217 11.719962 -1.183523 -2.080051 9.093638 -1.785595 1.308259 5.319940 -0.643160 1.404092 2.850050 -1.006045 -2.517050 -27.696815 -1.190111 -1.655239 -21.809012 0.259187 3.695654 0.786711 -2.747682 9.190322 33.613641 -69.589571 -7.276829 26.990850 3.047397 15.229706 -35.627777 1.278308 -7.754570 9.206462 5.709805 -4.228099 28.602053 77.502788 3.284688 10.432525 -7.941650 -24.636887 -48.260562 15.007594 -47.934545 -80.915355 49.034773 0.000000 72.670836 0.000000 16.089415 -13.965557 -9.932535 0.000000 -9.368273 0.000000 49.683492 -83.266183 -50.399466 0.000000 70.030680 0.000000 -8.149618 -12.965406 1.582123 0.000000 -2.343386 0.000000
179.072437 73.392267 124.384216 172.196675 31.933393 -0.295473 -1.591875 12.011050 -0.949612 -1.942054 9.054710 -1.740385 1.265564 5.397677 -0.802085 1.391841 2.901951 -0.936306 -2.518230 -27.290233 -1.273438 -1.646918 -22.075033 0.181267 2.187281 -0.109122 -4.407724 3.357608 30.421793 -71.661275 -6.089786 24.528586 3.030285 13.942881 -35.443397 2.918250 -5.204611 7.558365 7.702647 0.585916 26.415001 79.060814 3.460936 8.321163 -7.428723 -24.058900 -48.837649 14.387235 -45.805487 -80.417886 46.667194 0.000000 73.952680 0.000000 16.320375 -14.630310 -10.164183 0.000000 -9.253040 0.000000 46.811837 -82.752974 -47.477555 0.000000 71.292102 0.000000 -8.220913 -13.648354 1.802233 0.000000 -2.160785 0.000000
179.093518 72.884216 124.187341 172.477997 31.024312 -0.092174 -1.529415 11.605997 -1.103817 -1.853510 9.204710 -1.574562 1.195081 5.636679 -0.943506 1.482821 3.127015 -0.494089 -2.483050 -27.119205 -1.379942 -1.609796 -21.866044 0.070894 1.022472 -1.067390 -5.999276 -4.219472 26.795688 -73.596215 -4.467032 21.922558 3.212009 12.872671 -36.352223 4.107581 -3.216737 5.750184 9.284119 5.596032 23.596932 79.598885 3.608788 6.541164 -6.815059 -22.818158 -49.156126 12.934378 -44.557030 -80.065092 45.015961 0.000000 75.086439 0.000000 16.498785 -15.161282 -10.387707 0.000000 -9.190436 0.000000 45.982293 -82.309831 -46.719417 0.000000 72.617662 0.000000 -8.433205 -14.342591 2.017341 0.000000 -1.894508 0.000000
179.099524 72.472565 123.969153 172.627533 29.642866 0.090631 -1.342296 11.694565 -1.326120 -1.800892 9.111896 -1.516388 1.208861 5.799294 -0.752683 1.433860 3.425797 -0.426396 -2.193697 -26.752283 -1.363084 -1.496917 -21.047919 0.184438 0.230813 -1.660332 -7.259537 -13.160624 22.336163 -74.768241 -2.266977 18.140101 3.166053 11.567825 -37.544971 6.005106 -1.286076 4.174268 10.853221 11.298375 20.314186 79.253069 3.730692 4.733331 -6.279100 -21.568741 -48.801358 11.605442 -40.834250 -79.249832 40.924411 0.000000 76.068271 0.000000 16.711118 -15.730076 -10.629722 0.000000 -9.113936 0.000000 42.971740 -81.342400 -43.612191 0.000000 73.753150 0.000000 -8.698059 -14.987321 2.318414 0.000000 -1.541678 0.000000
179.097278 72.124054 123.757190 172.909289 28.344430 0.214985 -1.203457 11.505618 -1.327498 -1.671046 9.017465 -1.374630 1.213835 5.840090 -0.609665 1.496333 3.613409 -0.441448 -2.193168 -25.718841 -1.361323 -1.584378 -20.318369 0.468964 -1.083501 -1.586213 -8.681110 -21.143626 18.882637 -73.723720 -3.650845 14.612063 2.663294 13.767015 -39.435711 6.867509 0.302979 2.918649 12.156496 17.178119 16.717916 77.861157 3.903777 1.661736 -5.838537 -19.341610 -48.362248 8.485596 -38.459632 -78.333745 38.037068 0.000000 76.887768 0.000000 16.968444 -16.163310 -10.885137 0.000000 -9.139408 0.000000 39.876250 -80.402413 -40.514281 0.000000 74.736880 0.000000 -9.004805 -15.579018 2.607521 0.000000 -1.270645 0.000000
179.063586 71.824023 123.551636 173.041912 26.874136 0.387248 -0.959066 11.339971 -1.337481 -1.397327 8.985886 -1.205276 1.191724 5.786553 -0.744286 1.306183 3.829132 -0.582613 -2.285211 -24.800554 -0.820664 -1.508937 -19.097086 0.616554 -1.621705 -0.863203 -9.432815 -29.747556 14.161232 -71.151042 -3.814984 9.527463 2.137851 14.427563 -40.623984 8.186534 1.545073 2.451755 13.442015 23.530987 12.274104 75.001084 4.095332 -2.238140 -5.270226 -16.955543 -46.811256 5.087101 -35.122999 -77.263239 34.258773 0.000000 77.599193 0.000000 17.257990 -16.621976 -11.093695 0.000000 -9.131106 0.000000 37.343786 -79.173988 -37.860804 0.000000 75.604952 0.000000 -9.333995 -16.100191 2.907302 0.000000 -0.987870 0.000000
179.031042 71.569525 123.375281 173.261790 25.208153 0.397237 -0.812736 11.262292 -1.187708 -1.177729 8.737129 -1.076466 1.195146 5.836326 -0.814249 1.205908 4.163580 -0.518747 -2.279814 -23.869082 -0.718593 -1.581816 -17.507053 0.999082 -2.076856 0.046314 -10.232984 -37.088496 9.103642 -66.772366 -3.924555 4.431730 1.744557 14.351720 -41.441207 9.099236 2.303034 2.751150 14.248855 29.750784 7.117689 70.389549 4.270002 -6.208645 -5.028938 -13.471682 -46.668463 2.062814 -32.559899 -75.909130 31.203517 0.000000 78.228350 0.000000 17.507626 -16.981132 -11.186310 0.000000 -9.207131 0.000000 33.635438 -77.810155 -34.065435 0.000000 76.329921 0.000000 -9.643751 -16.607794 3.161702 0.000000 -0.751167 0.000000
178.974146 71.314038 123.251282 173.365648 23.433430 0.355247 -0.632991 10.988357 -1.028081 -0.962951 8.610432 -0.987493 1.163397 5.959330 -0.704872 1.086544 4.555723 -0.679657 -2.347682 -23.027748 -0.450821 -1.509897 -15.458820 1.009791 -2.511968 0.893961 -10.873665 -41.993722 3.348320 -61.060931 -3.988630 0.698530 1.650900 12.661922 -42.345359 9.265748 2.692101 3.568269 14.966218 37.527951 2.366268 64.018681 4.498529 -10.961842 -4.987392 -10.773333 -46.175967 0.669037 -30.295761 -74.427257 28.511812 0.000000 78.855987 0.000000 17.739470 -17.371195 -11.360452 0.000000 -9.175749 0.000000 30.585455 -76.323448 -30.839519 0.000000 76.985857 0.000000 -9.924604 -17.039356 3.522611 0.000000 -0.486578 0.000000
178.916406 71.041541 123.189099 173.408085 21.671293 0.213119 -0.472773 10.552411 -0.928764 -0.703758 8.435214 -0.719117 1.129481 6.097031 -0.667834 0.980519 4.921949 -0.783506 -2.402265 -21.906242 -0.194433 -1.375606 -13.393636 0.806783 -3.024453 1.676309 -11.725022 -45.810953 -2.752921 -54.511485 -4.020984 -1.170637 1.549704 10.100439 -42.915236 8.944562 3.397709 4.475729 15.895661 42.676498 -2.573244 55.865193 4.574401 -13.685687 -4.511346 -6.727230 -45.673672 -0.608500 -28.572307 -72.980031 26.476145 0.000000 79.506316 0.000000 17.944794 -17.703867 -11.537901 0.000000 -9.195212 0.000000 28.000238 -74.896332 -27.990394 0.000000 77.617294 0.000000 -10.232326 -17.347408 3.807105 0.000000 -0.258897 0.000000
178.859924 70.748218 123.116016 173.500929 19.630231 0.112570 -0.332503 10.357097 -0.821356 -0.505238 8.196746 -0.508484 1.086172 6.176740 -0.655697 0.926704 5.078992 -0.648072 -2.422453 -20.292746 -0.262034 -1.307405 -11.689643 0.617056 -3.999511 1.876190 -12.907437 -49.347635 -8.034802 -47.985808 -4.027024 -1.564450 1.595609 7.211132 -42.866090 7.820587 4.587155 4.754832 16.757094 46.387626 -6.536733 47.579828 5.286145 -13.010070 -3.939771 -3.062631 -46.330103 -1.197699 -26.683608 -71.289900 24.212839 0.000000 80.179381 0.000000 18.131371 -18.056783 -11.703292 0.000000 -9.209746 0.000000 25.375970 -73.194508 -25.151147 0.000000 78.273246 0.000000 -10.512204 -17.763038 3.998554 0.000000 0.151827 0.000000
